<mxfile host="Electron" modified="2023-06-09T21:45:27.230Z" agent="Mozilla/5.0 (Windows NT 10.0; Win64; x64) AppleWebKit/537.36 (KHTML, like Gecko) draw.io/21.2.8 Chrome/112.0.5615.165 Electron/24.2.0 Safari/537.36" etag="0epE6jzwnYG6-rMLp_zu" version="21.2.8" type="device">
  <diagram id="C5RBs43oDa-KdzZeNtuy" name="Page-1">
    <mxGraphModel dx="2185" dy="1831" grid="1" gridSize="10" guides="1" tooltips="1" connect="1" arrows="1" fold="1" page="1" pageScale="1" pageWidth="827" pageHeight="1169" math="0" shadow="0">
      <root>
        <mxCell id="WIyWlLk6GJQsqaUBKTNV-0" />
        <mxCell id="WIyWlLk6GJQsqaUBKTNV-1" parent="WIyWlLk6GJQsqaUBKTNV-0" />
        <mxCell id="WIyWlLk6GJQsqaUBKTNV-2" value="" style="rounded=0;html=1;jettySize=auto;orthogonalLoop=1;fontSize=11;endArrow=block;endFill=0;endSize=8;strokeWidth=1;shadow=0;labelBackgroundColor=none;edgeStyle=orthogonalEdgeStyle;" parent="WIyWlLk6GJQsqaUBKTNV-1" source="WIyWlLk6GJQsqaUBKTNV-3" target="WIyWlLk6GJQsqaUBKTNV-6" edge="1">
          <mxGeometry relative="1" as="geometry" />
        </mxCell>
        <mxCell id="WIyWlLk6GJQsqaUBKTNV-3" value="&lt;p style=&quot;margin-bottom:0cm;line-height:14.25pt;background:&lt;br/&gt;white&quot; class=&quot;MsoNormal&quot;&gt;&amp;nbsp; &amp;nbsp;&amp;nbsp;&lt;span style=&quot;font-size:10.5pt;font-family:Consolas;mso-fareast-font-family:&amp;quot;Times New Roman&amp;quot;;&lt;br/&gt;mso-bidi-font-family:&amp;quot;Times New Roman&amp;quot;;color:#001080;mso-font-kerning:0pt;&lt;br/&gt;mso-ligatures:none;mso-ansi-language:EN-US;mso-fareast-language:IT&quot; lang=&quot;EN-US&quot;&gt;Shop_and_day_form&lt;/span&gt;&lt;span style=&quot;font-size: 10.5pt; font-family: Consolas;&quot; lang=&quot;EN-US&quot;&gt; = &lt;/span&gt;&lt;span style=&quot;font-size:10.5pt;font-family:Consolas;&lt;br/&gt;mso-fareast-font-family:&amp;quot;Times New Roman&amp;quot;;mso-bidi-font-family:&amp;quot;Times New Roman&amp;quot;;&lt;br/&gt;color:#267F99;mso-font-kerning:0pt;mso-ligatures:none;mso-ansi-language:EN-US;&lt;br/&gt;mso-fareast-language:IT&quot; lang=&quot;EN-US&quot;&gt;forms&lt;/span&gt;&lt;span style=&quot;font-size: 10.5pt; font-family: Consolas;&quot; lang=&quot;EN-US&quot;&gt;.&lt;/span&gt;&lt;span style=&quot;font-size:10.5pt;font-family:Consolas;mso-fareast-font-family:&amp;quot;Times New Roman&amp;quot;;&lt;br/&gt;mso-bidi-font-family:&amp;quot;Times New Roman&amp;quot;;color:#267F99;mso-font-kerning:0pt;&lt;br/&gt;mso-ligatures:none;mso-ansi-language:EN-US;mso-fareast-language:IT&quot; lang=&quot;EN-US&quot;&gt;Shop_and_day_selectionForm&lt;/span&gt;&lt;span style=&quot;font-size: 10.5pt; font-family: Consolas;&quot; lang=&quot;EN-US&quot;&gt;()&amp;nbsp;&lt;/span&gt;&lt;/p&gt;&amp;nbsp; &amp;nbsp;&amp;nbsp;&lt;span style=&quot;border-color: var(--border-color); font-size: 10.5pt; font-family: Consolas;&quot; lang=&quot;EN-US&quot;&gt;TimeSlot_form&amp;nbsp;=&amp;nbsp;&lt;/span&gt;&lt;span style=&quot;border-color: var(--border-color); font-size: 10.5pt; font-family: Consolas;&quot; lang=&quot;EN-US&quot;&gt;forms&lt;/span&gt;&lt;span style=&quot;border-color: var(--border-color); font-size: 10.5pt; font-family: Consolas;&quot; lang=&quot;EN-US&quot;&gt;.&lt;/span&gt;&lt;span style=&quot;border-color: var(--border-color); font-size: 10.5pt; font-family: Consolas; color: rgb(38, 127, 153);&quot; lang=&quot;EN-US&quot;&gt;TimeSlot_selectionForm&lt;/span&gt;&lt;span style=&quot;border-color: var(--border-color); font-size: 10.5pt; font-family: Consolas;&quot; lang=&quot;EN-US&quot;&gt;()&amp;nbsp; &amp;nbsp; &amp;nbsp; &amp;nbsp; &amp;nbsp; &amp;nbsp;&amp;nbsp;&lt;span style=&quot;font-size: 10.5pt; background-color: initial;&quot;&gt;&amp;nbsp; &amp;nbsp;&amp;nbsp;&lt;/span&gt;&lt;span style=&quot;font-size: 10.5pt; background-color: initial; color: rgb(0, 16, 128);&quot; lang=&quot;EN-US&quot;&gt;shops&lt;/span&gt;&lt;span style=&quot;font-size: 10.5pt; background-color: initial;&quot; lang=&quot;EN-US&quot;&gt; =&amp;nbsp; &lt;/span&gt;&lt;span style=&quot;font-size: 10.5pt; background-color: initial; color: rgb(38, 127, 153);&quot; lang=&quot;EN-US&quot;&gt;Shop&lt;/span&gt;&lt;span style=&quot;font-size: 10.5pt; background-color: initial;&quot; lang=&quot;EN-US&quot;&gt;.&lt;/span&gt;&lt;span style=&quot;font-size: 10.5pt; background-color: initial; color: rgb(0, 16, 128);&quot; lang=&quot;EN-US&quot;&gt;objects&lt;/span&gt;&lt;span style=&quot;font-size: 10.5pt; background-color: initial;&quot; lang=&quot;EN-US&quot;&gt;.&lt;/span&gt;&lt;span style=&quot;font-size: 10.5pt; background-color: initial; color: rgb(121, 94, 38);&quot; lang=&quot;EN-US&quot;&gt;filter&lt;/span&gt;&lt;span style=&quot;font-size: 10.5pt; background-color: initial;&quot; lang=&quot;EN-US&quot;&gt;(&lt;/span&gt;&lt;span style=&quot;font-size: 10.5pt; background-color: initial; color: rgb(0, 16, 128);&quot; lang=&quot;EN-US&quot;&gt;category&lt;/span&gt;&lt;span style=&quot;font-size: 10.5pt; background-color: initial;&quot; lang=&quot;EN-US&quot;&gt;=&lt;/span&gt;&lt;span style=&quot;font-size: 10.5pt; background-color: initial; color: rgb(0, 16, 128);&quot; lang=&quot;EN-US&quot;&gt;selected_category&lt;/span&gt;&lt;span style=&quot;font-size: 10.5pt; background-color: initial;&quot; lang=&quot;EN-US&quot;&gt;)&lt;br&gt;&lt;/span&gt;&lt;p style=&quot;margin-bottom:0cm;line-height:14.25pt;background:&lt;br/&gt;white&quot; class=&quot;MsoNormal&quot;&gt;&amp;nbsp; &lt;span style=&quot;font-size: 10.5pt; color: rgb(0, 16, 128);&quot; lang=&quot;EN-US&quot;&gt;addresses&lt;/span&gt;&lt;span style=&quot;font-size: 10.5pt;&quot; lang=&quot;EN-US&quot;&gt; = [&lt;/span&gt;&lt;span style=&quot;font-size: 10.5pt; color: rgb(0, 16, 128);&quot; lang=&quot;EN-US&quot;&gt;shop&lt;/span&gt;&lt;span style=&quot;font-size: 10.5pt;&quot; lang=&quot;EN-US&quot;&gt;.&lt;/span&gt;&lt;span style=&quot;font-size: 10.5pt; color: rgb(0, 16, 128);&quot; lang=&quot;EN-US&quot;&gt;address&lt;/span&gt;&lt;span style=&quot;font-size: 10.5pt;&quot; lang=&quot;EN-US&quot;&gt; &lt;/span&gt;&lt;span style=&quot;font-size: 10.5pt; color: rgb(175, 0, 219);&quot; lang=&quot;EN-US&quot;&gt;for&lt;/span&gt;&lt;span style=&quot;font-size: 10.5pt;&quot; lang=&quot;EN-US&quot;&gt; &lt;/span&gt;&lt;span style=&quot;font-size: 10.5pt; color: rgb(0, 16, 128);&quot; lang=&quot;EN-US&quot;&gt;shop&lt;/span&gt;&lt;span style=&quot;font-size: 10.5pt;&quot; lang=&quot;EN-US&quot;&gt; &lt;/span&gt;&lt;span style=&quot;font-size: 10.5pt; color: rgb(175, 0, 219);&quot; lang=&quot;EN-US&quot;&gt;in&lt;/span&gt;&lt;span style=&quot;font-size: 10.5pt;&quot; lang=&quot;EN-US&quot;&gt; &lt;/span&gt;&lt;span style=&quot;font-size: 10.5pt; color: rgb(0, 16, 128);&quot; lang=&quot;EN-US&quot;&gt;shops&lt;/span&gt;&lt;span style=&quot;font-size: 10.5pt;&quot; lang=&quot;EN-US&quot;&gt;]&amp;nbsp; &amp;nbsp; &amp;nbsp; &amp;nbsp; &amp;nbsp; &amp;nbsp; &amp;nbsp; &amp;nbsp; &amp;nbsp;&amp;nbsp;&lt;/span&gt;&lt;span style=&quot;font-size: 10.5pt; color: rgb(0, 16, 128);&quot; lang=&quot;EN-US&quot;&gt;names&lt;/span&gt;&lt;span style=&quot;font-size: 10.5pt;&quot; lang=&quot;EN-US&quot;&gt; = [&lt;/span&gt;&lt;span style=&quot;font-size: 10.5pt; color: rgb(0, 16, 128);&quot; lang=&quot;EN-US&quot;&gt;shop&lt;/span&gt;&lt;span style=&quot;font-size: 10.5pt;&quot; lang=&quot;EN-US&quot;&gt;.&lt;/span&gt;&lt;span style=&quot;font-size: 10.5pt; color: rgb(0, 16, 128);&quot; lang=&quot;EN-US&quot;&gt;name&lt;/span&gt;&lt;span style=&quot;font-size: 10.5pt;&quot; lang=&quot;EN-US&quot;&gt; &lt;/span&gt;&lt;span style=&quot;font-size: 10.5pt; color: rgb(175, 0, 219);&quot; lang=&quot;EN-US&quot;&gt;for&lt;/span&gt;&lt;span style=&quot;font-size: 10.5pt;&quot; lang=&quot;EN-US&quot;&gt; &lt;/span&gt;&lt;span style=&quot;font-size: 10.5pt; color: rgb(0, 16, 128);&quot; lang=&quot;EN-US&quot;&gt;shop&lt;/span&gt;&lt;span style=&quot;font-size: 10.5pt;&quot; lang=&quot;EN-US&quot;&gt; &lt;/span&gt;&lt;span style=&quot;font-size: 10.5pt; color: rgb(175, 0, 219);&quot; lang=&quot;EN-US&quot;&gt;in&lt;/span&gt;&lt;span style=&quot;font-size: 10.5pt;&quot; lang=&quot;EN-US&quot;&gt; &lt;/span&gt;&lt;span style=&quot;font-size: 10.5pt; color: rgb(0, 16, 128);&quot; lang=&quot;EN-US&quot;&gt;shops&lt;/span&gt;&lt;span style=&quot;font-size: 10.5pt;&quot; lang=&quot;EN-US&quot;&gt;]&lt;/span&gt;&lt;/p&gt;&lt;/span&gt;" style="rounded=0;whiteSpace=wrap;html=1;fontSize=12;glass=0;strokeWidth=1;shadow=0;align=left;" parent="WIyWlLk6GJQsqaUBKTNV-1" vertex="1">
          <mxGeometry x="-22.5" y="-230" width="485" height="140" as="geometry" />
        </mxCell>
        <mxCell id="SWJyvGieFvOSJalt4ezU-30" style="edgeStyle=orthogonalEdgeStyle;rounded=0;orthogonalLoop=1;jettySize=auto;html=1;exitX=1;exitY=0.5;exitDx=0;exitDy=0;" edge="1" parent="WIyWlLk6GJQsqaUBKTNV-1" source="WIyWlLk6GJQsqaUBKTNV-6" target="SWJyvGieFvOSJalt4ezU-29">
          <mxGeometry relative="1" as="geometry" />
        </mxCell>
        <mxCell id="WIyWlLk6GJQsqaUBKTNV-6" value="if&lt;span style=&quot;font-size: 10.5pt; line-height: 107%; font-family: Consolas;&quot; lang=&quot;EN-US&quot;&gt; &lt;/span&gt;&lt;span style=&quot;font-size:10.5pt;line-height:107%;font-family:Consolas;mso-fareast-font-family:&lt;br/&gt;&amp;quot;Times New Roman&amp;quot;;mso-bidi-font-family:&amp;quot;Times New Roman&amp;quot;;color:#001080;&lt;br/&gt;mso-font-kerning:0pt;mso-ligatures:none;mso-ansi-language:EN-US;mso-fareast-language:&lt;br/&gt;IT;mso-bidi-language:AR-SA&quot; lang=&quot;EN-US&quot;&gt;request&lt;/span&gt;&lt;span style=&quot;font-size: 10.5pt; line-height: 107%; font-family: Consolas;&quot; lang=&quot;EN-US&quot;&gt;.method == &lt;/span&gt;&lt;span style=&quot;font-size:10.5pt;line-height:&lt;br/&gt;107%;font-family:Consolas;mso-fareast-font-family:&amp;quot;Times New Roman&amp;quot;;mso-bidi-font-family:&lt;br/&gt;&amp;quot;Times New Roman&amp;quot;;color:#A31515;mso-font-kerning:0pt;mso-ligatures:none;&lt;br/&gt;mso-ansi-language:EN-US;mso-fareast-language:IT;mso-bidi-language:AR-SA&quot; lang=&quot;EN-US&quot;&gt;&#39;POST&#39;&lt;/span&gt;" style="rhombus;whiteSpace=wrap;html=1;shadow=0;fontFamily=Helvetica;fontSize=12;align=center;strokeWidth=1;spacing=6;spacingTop=-4;" parent="WIyWlLk6GJQsqaUBKTNV-1" vertex="1">
          <mxGeometry x="95" y="20" width="250" height="120" as="geometry" />
        </mxCell>
        <mxCell id="SWJyvGieFvOSJalt4ezU-7" value="" style="endArrow=classic;html=1;rounded=0;exitX=0;exitY=0.5;exitDx=0;exitDy=0;entryX=0.5;entryY=0;entryDx=0;entryDy=0;" edge="1" parent="WIyWlLk6GJQsqaUBKTNV-1" source="WIyWlLk6GJQsqaUBKTNV-6" target="SWJyvGieFvOSJalt4ezU-10">
          <mxGeometry width="50" height="50" relative="1" as="geometry">
            <mxPoint x="290" y="190" as="sourcePoint" />
            <mxPoint x="-130" y="120" as="targetPoint" />
            <Array as="points">
              <mxPoint x="-130" y="80" />
            </Array>
          </mxGeometry>
        </mxCell>
        <mxCell id="SWJyvGieFvOSJalt4ezU-8" value="False" style="edgeLabel;html=1;align=center;verticalAlign=middle;resizable=0;points=[];" vertex="1" connectable="0" parent="SWJyvGieFvOSJalt4ezU-7">
          <mxGeometry x="-0.2936" y="-2" relative="1" as="geometry">
            <mxPoint x="212" y="-115" as="offset" />
          </mxGeometry>
        </mxCell>
        <mxCell id="SWJyvGieFvOSJalt4ezU-28" style="edgeStyle=orthogonalEdgeStyle;rounded=0;orthogonalLoop=1;jettySize=auto;html=1;exitX=0.5;exitY=1;exitDx=0;exitDy=0;entryX=0.382;entryY=-0.013;entryDx=0;entryDy=0;entryPerimeter=0;" edge="1" parent="WIyWlLk6GJQsqaUBKTNV-1" source="SWJyvGieFvOSJalt4ezU-10" target="WIyWlLk6GJQsqaUBKTNV-3">
          <mxGeometry relative="1" as="geometry">
            <mxPoint x="150" y="-260" as="targetPoint" />
            <Array as="points">
              <mxPoint x="-127" y="860" />
              <mxPoint x="-599" y="860" />
              <mxPoint x="-599" y="-310" />
              <mxPoint x="163" y="-310" />
            </Array>
          </mxGeometry>
        </mxCell>
        <mxCell id="SWJyvGieFvOSJalt4ezU-10" value="&lt;p style=&quot;margin-bottom:0cm;line-height:14.25pt;background:&lt;br/&gt;white&quot; class=&quot;MsoNormal&quot;&gt;&amp;nbsp;&amp;nbsp; &amp;nbsp; &lt;span style=&quot;font-size: 10.5pt; font-family: Consolas; color: rgb(175, 0, 219);&quot; lang=&quot;EN-US&quot;&gt;return&lt;/span&gt;&lt;span style=&quot;font-size: 10.5pt; font-family: Consolas;&quot; lang=&quot;EN-US&quot;&gt; &lt;/span&gt;&lt;span style=&quot;font-size: 10.5pt; font-family: Consolas; color: rgb(121, 94, 38);&quot; lang=&quot;EN-US&quot;&gt;render&lt;/span&gt;&lt;span style=&quot;font-size: 10.5pt; font-family: Consolas;&quot; lang=&quot;EN-US&quot;&gt;(&lt;/span&gt;&lt;span style=&quot;font-size: 10.5pt; font-family: Consolas; color: rgb(0, 16, 128);&quot; lang=&quot;EN-US&quot;&gt;request&lt;/span&gt;&lt;span style=&quot;font-size: 10.5pt; font-family: Consolas;&quot; lang=&quot;EN-US&quot;&gt;, &lt;/span&gt;&lt;span style=&quot;font-size: 10.5pt; font-family: Consolas; color: rgb(163, 21, 21);&quot; lang=&quot;EN-US&quot;&gt;&#39;booking.html&#39;&lt;/span&gt;&lt;span style=&quot;font-size: 10.5pt; font-family: Consolas;&quot; lang=&quot;EN-US&quot;&gt;, &lt;/span&gt;&lt;span style=&quot;font-size: 10.5pt; font-family: Consolas; color: rgb(0, 16, 128);&quot; lang=&quot;EN-US&quot;&gt;context&lt;/span&gt;&lt;span style=&quot;font-size: 10.5pt; font-family: Consolas;&quot; lang=&quot;EN-US&quot;&gt;=&lt;/span&gt;&lt;span style=&quot;font-size: 10.5pt; font-family: Consolas; color: rgb(0, 16, 128);&quot; lang=&quot;EN-US&quot;&gt;context&lt;/span&gt;&lt;span style=&quot;font-size: 10.5pt; font-family: Consolas;&quot; lang=&quot;EN-US&quot;&gt;)&lt;/span&gt;&lt;/p&gt;&lt;p style=&quot;margin-bottom:0cm;line-height:14.25pt;background:&lt;br/&gt;white&quot; class=&quot;MsoNormal&quot;&gt;&lt;span style=&quot;font-size: 10.5pt; font-family: Consolas;&quot; lang=&quot;EN-US&quot;&gt;&lt;/span&gt;&lt;/p&gt;" style="rounded=0;whiteSpace=wrap;html=1;fontSize=12;glass=0;strokeWidth=1;shadow=0;align=left;" vertex="1" parent="WIyWlLk6GJQsqaUBKTNV-1">
          <mxGeometry x="-370" y="790" width="485" height="50" as="geometry" />
        </mxCell>
        <mxCell id="SWJyvGieFvOSJalt4ezU-12" value="" style="endArrow=classic;html=1;rounded=0;exitX=0.5;exitY=1;exitDx=0;exitDy=0;entryX=0.5;entryY=0;entryDx=0;entryDy=0;edgeStyle=orthogonalEdgeStyle;" edge="1" parent="WIyWlLk6GJQsqaUBKTNV-1" source="WIyWlLk6GJQsqaUBKTNV-6" target="SWJyvGieFvOSJalt4ezU-13">
          <mxGeometry width="50" height="50" relative="1" as="geometry">
            <mxPoint x="300" y="220" as="sourcePoint" />
            <mxPoint x="220" y="240" as="targetPoint" />
          </mxGeometry>
        </mxCell>
        <mxCell id="SWJyvGieFvOSJalt4ezU-16" value="True" style="edgeLabel;html=1;align=center;verticalAlign=middle;resizable=0;points=[];" vertex="1" connectable="0" parent="SWJyvGieFvOSJalt4ezU-12">
          <mxGeometry x="0.6255" y="1" relative="1" as="geometry">
            <mxPoint x="19" y="-79" as="offset" />
          </mxGeometry>
        </mxCell>
        <mxCell id="SWJyvGieFvOSJalt4ezU-13" value="&lt;p style=&quot;margin-bottom:0cm;line-height:14.25pt;background:&lt;br/&gt;white&quot; class=&quot;MsoNormal&quot;&gt;if&lt;span style=&quot;font-size: 10.5pt; font-family: Consolas;&quot; lang=&quot;EN-US&quot;&gt; &lt;/span&gt;&lt;span style=&quot;font-size:10.5pt;font-family:Consolas;mso-fareast-font-family:&amp;quot;Times New Roman&amp;quot;;&lt;br/&gt;mso-bidi-font-family:&amp;quot;Times New Roman&amp;quot;;color:#A31515;mso-font-kerning:0pt;&lt;br/&gt;mso-ligatures:none;mso-ansi-language:EN-US;mso-fareast-language:IT&quot; lang=&quot;EN-US&quot;&gt;&#39;btnform1&#39;&lt;/span&gt;&lt;span style=&quot;font-size: 10.5pt; font-family: Consolas;&quot; lang=&quot;EN-US&quot;&gt; &lt;/span&gt;&lt;span style=&quot;font-size:10.5pt;font-family:Consolas;&lt;br/&gt;mso-fareast-font-family:&amp;quot;Times New Roman&amp;quot;;mso-bidi-font-family:&amp;quot;Times New Roman&amp;quot;;&lt;br/&gt;color:blue;mso-font-kerning:0pt;mso-ligatures:none;mso-ansi-language:EN-US;&lt;br/&gt;mso-fareast-language:IT&quot; lang=&quot;EN-US&quot;&gt;in&lt;/span&gt;&lt;span style=&quot;font-size: 10.5pt; font-family: Consolas;&quot; lang=&quot;EN-US&quot;&gt; &lt;/span&gt;&lt;span style=&quot;font-size:10.5pt;font-family:Consolas;mso-fareast-font-family:&amp;quot;Times New Roman&amp;quot;;&lt;br/&gt;mso-bidi-font-family:&amp;quot;Times New Roman&amp;quot;;color:#001080;mso-font-kerning:0pt;&lt;br/&gt;mso-ligatures:none;mso-ansi-language:EN-US;mso-fareast-language:IT&quot; lang=&quot;EN-US&quot;&gt;request&lt;/span&gt;&lt;span style=&quot;font-size: 10.5pt; font-family: Consolas;&quot; lang=&quot;EN-US&quot;&gt;.POST:&lt;/span&gt;&lt;/p&gt;" style="rhombus;whiteSpace=wrap;html=1;shadow=0;fontFamily=Helvetica;fontSize=12;align=center;strokeWidth=1;spacing=6;spacingTop=-4;" vertex="1" parent="WIyWlLk6GJQsqaUBKTNV-1">
          <mxGeometry x="87.5" y="250" width="265" height="150" as="geometry" />
        </mxCell>
        <mxCell id="SWJyvGieFvOSJalt4ezU-17" value="" style="endArrow=classic;html=1;rounded=0;exitX=1;exitY=0.5;exitDx=0;exitDy=0;entryX=0.5;entryY=0;entryDx=0;entryDy=0;edgeStyle=orthogonalEdgeStyle;" edge="1" parent="WIyWlLk6GJQsqaUBKTNV-1" source="SWJyvGieFvOSJalt4ezU-13" target="SWJyvGieFvOSJalt4ezU-22">
          <mxGeometry width="50" height="50" relative="1" as="geometry">
            <mxPoint x="219.5" y="420" as="sourcePoint" />
            <mxPoint x="219.5" y="530" as="targetPoint" />
            <Array as="points">
              <mxPoint x="600" y="325" />
            </Array>
          </mxGeometry>
        </mxCell>
        <mxCell id="SWJyvGieFvOSJalt4ezU-18" value="True" style="edgeLabel;html=1;align=center;verticalAlign=middle;resizable=0;points=[];" vertex="1" connectable="0" parent="SWJyvGieFvOSJalt4ezU-17">
          <mxGeometry x="0.6255" y="1" relative="1" as="geometry">
            <mxPoint x="19" y="-79" as="offset" />
          </mxGeometry>
        </mxCell>
        <mxCell id="SWJyvGieFvOSJalt4ezU-19" value="" style="endArrow=classic;html=1;rounded=0;exitX=0;exitY=0.5;exitDx=0;exitDy=0;edgeStyle=orthogonalEdgeStyle;entryX=0.587;entryY=-0.016;entryDx=0;entryDy=0;entryPerimeter=0;" edge="1" parent="WIyWlLk6GJQsqaUBKTNV-1" source="SWJyvGieFvOSJalt4ezU-13" target="SWJyvGieFvOSJalt4ezU-10">
          <mxGeometry width="50" height="50" relative="1" as="geometry">
            <mxPoint x="210" y="90" as="sourcePoint" />
            <mxPoint x="-70" y="720" as="targetPoint" />
            <Array as="points">
              <mxPoint x="-85" y="325" />
            </Array>
          </mxGeometry>
        </mxCell>
        <mxCell id="SWJyvGieFvOSJalt4ezU-20" value="False" style="edgeLabel;html=1;align=center;verticalAlign=middle;resizable=0;points=[];" vertex="1" connectable="0" parent="SWJyvGieFvOSJalt4ezU-19">
          <mxGeometry x="-0.2936" y="-2" relative="1" as="geometry">
            <mxPoint x="852" y="-207" as="offset" />
          </mxGeometry>
        </mxCell>
        <mxCell id="SWJyvGieFvOSJalt4ezU-25" style="edgeStyle=orthogonalEdgeStyle;rounded=0;orthogonalLoop=1;jettySize=auto;html=1;exitX=0.5;exitY=1;exitDx=0;exitDy=0;" edge="1" parent="WIyWlLk6GJQsqaUBKTNV-1" source="SWJyvGieFvOSJalt4ezU-22" target="SWJyvGieFvOSJalt4ezU-24">
          <mxGeometry relative="1" as="geometry" />
        </mxCell>
        <mxCell id="SWJyvGieFvOSJalt4ezU-22" value="&lt;p style=&quot;border-color: var(--border-color); margin-bottom: 0cm; line-height: 14.25pt;&quot; class=&quot;MsoNormal&quot;&gt;&lt;span style=&quot;background-color: initial;&quot;&gt;&amp;nbsp; &amp;nbsp;&amp;nbsp;&lt;/span&gt;&lt;span style=&quot;background-color: initial; border-color: var(--border-color); font-size: 10.5pt; font-family: Consolas; color: rgb(0, 16, 128);&quot; lang=&quot;EN-US&quot;&gt;shop_ids&lt;/span&gt;&lt;span style=&quot;background-color: initial; border-color: var(--border-color); font-size: 10.5pt; font-family: Consolas;&quot; lang=&quot;EN-US&quot;&gt;&amp;nbsp;=&amp;nbsp;&lt;/span&gt;&lt;span style=&quot;background-color: initial; border-color: var(--border-color); font-size: 10.5pt; font-family: Consolas; color: rgb(0, 16, 128);&quot; lang=&quot;EN-US&quot;&gt;request&lt;/span&gt;&lt;span style=&quot;background-color: initial; border-color: var(--border-color); font-size: 10.5pt; font-family: Consolas;&quot; lang=&quot;EN-US&quot;&gt;.POST.get(&lt;/span&gt;&lt;span style=&quot;background-color: initial; border-color: var(--border-color); font-size: 10.5pt; font-family: Consolas; color: rgb(163, 21, 21);&quot; lang=&quot;EN-US&quot;&gt;&#39;shop_ids&#39;&lt;/span&gt;&lt;span style=&quot;background-color: initial; border-color: var(--border-color); font-size: 10.5pt; font-family: Consolas;&quot; lang=&quot;EN-US&quot;&gt;)&amp;nbsp; &amp;nbsp; &amp;nbsp; &amp;nbsp;&lt;/span&gt;&lt;span style=&quot;background-color: initial; border-color: var(--border-color); font-size: 10.5pt; font-family: Consolas;&quot; lang=&quot;EN-US&quot;&gt;&amp;nbsp;&lt;/span&gt;&lt;span style=&quot;background-color: initial; border-color: var(--border-color); font-size: 10.5pt; font-family: Consolas; color: rgb(0, 16, 128);&quot; lang=&quot;EN-US&quot;&gt;date&lt;/span&gt;&lt;span style=&quot;background-color: initial; border-color: var(--border-color); font-size: 10.5pt; font-family: Consolas;&quot; lang=&quot;EN-US&quot;&gt;&amp;nbsp;=&amp;nbsp;&lt;/span&gt;&lt;span style=&quot;background-color: initial; border-color: var(--border-color); font-size: 10.5pt; color: rgb(0, 16, 128);&quot; lang=&quot;EN-US&quot;&gt;request&lt;/span&gt;&lt;span style=&quot;background-color: initial; border-color: var(--border-color); font-size: 10.5pt; font-family: Consolas;&quot; lang=&quot;EN-US&quot;&gt;.POST.get(&lt;/span&gt;&lt;span style=&quot;background-color: initial; border-color: var(--border-color); font-size: 10.5pt; font-family: Consolas;&quot; lang=&quot;EN-US&quot;&gt;&#39;date&#39;&lt;/span&gt;&lt;span style=&quot;background-color: initial; border-color: var(--border-color); font-size: 10.5pt; font-family: Consolas;&quot; lang=&quot;EN-US&quot;&gt;)&amp;nbsp; &amp;nbsp; &amp;nbsp; &amp;nbsp; &amp;nbsp; &amp;nbsp;&amp;nbsp;&lt;/span&gt;&lt;span style=&quot;background-color: initial; border-color: var(--border-color); font-size: 10.5pt; font-family: Consolas; color: rgb(0, 16, 128);&quot; lang=&quot;EN-US&quot;&gt;shop&lt;/span&gt;&lt;span style=&quot;background-color: initial; border-color: var(--border-color); font-size: 10.5pt; font-family: Consolas;&quot; lang=&quot;EN-US&quot;&gt;&amp;nbsp;=&amp;nbsp;&lt;/span&gt;&lt;span style=&quot;background-color: initial; border-color: var(--border-color); font-size: 10.5pt; font-family: Consolas; color: rgb(38, 127, 153);&quot; lang=&quot;EN-US&quot;&gt;Shop&lt;/span&gt;&lt;span style=&quot;background-color: initial; border-color: var(--border-color); font-size: 10.5pt; font-family: Consolas;&quot; lang=&quot;EN-US&quot;&gt;.&lt;/span&gt;&lt;span style=&quot;background-color: initial; border-color: var(--border-color); font-size: 10.5pt; font-family: Consolas; color: rgb(0, 16, 128);&quot; lang=&quot;EN-US&quot;&gt;objects&lt;/span&gt;&lt;span style=&quot;background-color: initial; border-color: var(--border-color); font-size: 10.5pt; font-family: Consolas;&quot; lang=&quot;EN-US&quot;&gt;.&lt;/span&gt;&lt;span style=&quot;background-color: initial; border-color: var(--border-color); font-size: 10.5pt; font-family: Consolas; color: rgb(121, 94, 38);&quot; lang=&quot;EN-US&quot;&gt;get&lt;/span&gt;&lt;span style=&quot;background-color: initial; border-color: var(--border-color); font-size: 10.5pt; font-family: Consolas;&quot; lang=&quot;EN-US&quot;&gt;(&lt;/span&gt;&lt;span style=&quot;background-color: initial; border-color: var(--border-color); font-size: 10.5pt; font-family: Consolas; color: rgb(0, 16, 128);&quot; lang=&quot;EN-US&quot;&gt;ids&lt;/span&gt;&lt;span style=&quot;background-color: initial; border-color: var(--border-color); font-size: 10.5pt; font-family: Consolas;&quot; lang=&quot;EN-US&quot;&gt;=&lt;/span&gt;&lt;span style=&quot;background-color: initial; border-color: var(--border-color); font-size: 10.5pt; font-family: Consolas; color: rgb(0, 16, 128);&quot; lang=&quot;EN-US&quot;&gt;shop_ids&lt;/span&gt;&lt;span style=&quot;background-color: initial; border-color: var(--border-color); font-size: 10.5pt; font-family: Consolas;&quot; lang=&quot;EN-US&quot;&gt;)&lt;/span&gt;&lt;span style=&quot;background-color: initial; text-indent: -70.9pt; border-color: var(--border-color); font-size: 10.5pt; font-family: Consolas;&quot; lang=&quot;EN-US&quot;&gt;&amp;nbsp; &amp;nbsp; &amp;nbsp; &amp;nbsp;&amp;nbsp;&lt;/span&gt;&lt;span style=&quot;background-color: initial; text-indent: -70.9pt; border-color: var(--border-color); font-size: 10.5pt; font-family: Consolas; color: rgb(0, 16, 128);&quot; lang=&quot;EN-US&quot;&gt;timeslots&lt;/span&gt;&lt;span style=&quot;background-color: initial; text-indent: -70.9pt; border-color: var(--border-color); font-size: 10.5pt; font-family: Consolas;&quot; lang=&quot;EN-US&quot;&gt;&amp;nbsp;=&amp;nbsp;&lt;/span&gt;&lt;span style=&quot;background-color: initial; text-indent: -70.9pt; border-color: var(--border-color); font-size: 10.5pt; font-family: Consolas;&quot; lang=&quot;EN-US&quot;&gt;TimeSlot&lt;/span&gt;&lt;span style=&quot;background-color: initial; text-indent: -70.9pt; border-color: var(--border-color); font-size: 10.5pt; font-family: Consolas;&quot; lang=&quot;EN-US&quot;&gt;.&lt;/span&gt;&lt;span style=&quot;background-color: initial; text-indent: -70.9pt; border-color: var(--border-color); font-size: 10.5pt; font-family: Consolas; color: rgb(0, 16, 128);&quot; lang=&quot;EN-US&quot;&gt;objects&lt;/span&gt;&lt;span style=&quot;background-color: initial; text-indent: -70.9pt; border-color: var(--border-color); font-size: 10.5pt; font-family: Consolas;&quot; lang=&quot;EN-US&quot;&gt;.&lt;/span&gt;&lt;span style=&quot;background-color: initial; text-indent: -70.9pt; border-color: var(--border-color); font-size: 10.5pt; font-family: Consolas;&quot; lang=&quot;EN-US&quot;&gt;filter&lt;/span&gt;&lt;span style=&quot;background-color: initial; text-indent: -70.9pt; border-color: var(--border-color); font-size: 10.5pt; font-family: Consolas;&quot; lang=&quot;EN-US&quot;&gt;(&lt;/span&gt;&lt;span style=&quot;background-color: initial; text-indent: -70.9pt; border-color: var(--border-color); font-size: 10.5pt; font-family: Consolas; color: rgb(0, 16, 128);&quot; lang=&quot;EN-US&quot;&gt;shop&lt;/span&gt;&lt;span style=&quot;background-color: initial; text-indent: -70.9pt; border-color: var(--border-color); font-size: 10.5pt; font-family: Consolas;&quot; lang=&quot;EN-US&quot;&gt;=&lt;/span&gt;&lt;span style=&quot;background-color: initial; text-indent: -70.9pt; border-color: var(--border-color); font-size: 10.5pt; font-family: Consolas;&quot; lang=&quot;EN-US&quot;&gt;shop&lt;/span&gt;&lt;span style=&quot;background-color: initial; text-indent: -70.9pt; border-color: var(--border-color); font-size: 10.5pt; font-family: Consolas;&quot; lang=&quot;EN-US&quot;&gt;,&amp;nbsp;&lt;/span&gt;&lt;span style=&quot;background-color: initial; text-indent: -70.9pt; border-color: var(--border-color); font-size: 10.5pt; font-family: Consolas; color: rgb(0, 16, 128);&quot; lang=&quot;EN-US&quot;&gt;date&lt;/span&gt;&lt;span style=&quot;background-color: initial; text-indent: -70.9pt; border-color: var(--border-color); font-size: 10.5pt; font-family: Consolas;&quot; lang=&quot;EN-US&quot;&gt;=&lt;/span&gt;&lt;span style=&quot;background-color: initial; text-indent: -70.9pt; border-color: var(--border-color); font-size: 10.5pt; font-family: Consolas;&quot; lang=&quot;EN-US&quot;&gt;date&lt;/span&gt;&lt;span style=&quot;background-color: initial; text-indent: -70.9pt; border-color: var(--border-color); font-size: 10.5pt; font-family: Consolas;&quot; lang=&quot;EN-US&quot;&gt;,&amp;nbsp;&lt;/span&gt;&lt;span style=&quot;background-color: initial; text-indent: -70.9pt; border-color: var(--border-color); font-size: 10.5pt; font-family: Consolas; color: rgb(0, 16, 128);&quot; lang=&quot;EN-US&quot;&gt;available&lt;/span&gt;&lt;span style=&quot;background-color: initial; text-indent: -70.9pt; border-color: var(--border-color); font-size: 10.5pt; font-family: Consolas;&quot; lang=&quot;EN-US&quot;&gt;=&lt;/span&gt;&lt;span style=&quot;background-color: initial; text-indent: -70.9pt; border-color: var(--border-color); font-size: 10.5pt; font-family: Consolas;&quot; lang=&quot;EN-US&quot;&gt;True&lt;/span&gt;&lt;span style=&quot;background-color: initial; text-indent: -70.9pt; border-color: var(--border-color); font-size: 10.5pt; font-family: Consolas;&quot; lang=&quot;EN-US&quot;&gt;)&lt;/span&gt;&lt;/p&gt;" style="rounded=0;whiteSpace=wrap;html=1;fontSize=12;glass=0;strokeWidth=1;shadow=0;align=left;" vertex="1" parent="WIyWlLk6GJQsqaUBKTNV-1">
          <mxGeometry x="300" y="560" width="600" height="90" as="geometry" />
        </mxCell>
        <mxCell id="SWJyvGieFvOSJalt4ezU-26" style="edgeStyle=orthogonalEdgeStyle;rounded=0;orthogonalLoop=1;jettySize=auto;html=1;exitX=0.5;exitY=1;exitDx=0;exitDy=0;entryX=0.5;entryY=0;entryDx=0;entryDy=0;" edge="1" parent="WIyWlLk6GJQsqaUBKTNV-1" source="SWJyvGieFvOSJalt4ezU-24" target="WIyWlLk6GJQsqaUBKTNV-3">
          <mxGeometry relative="1" as="geometry">
            <mxPoint x="-510" y="-180" as="targetPoint" />
            <Array as="points">
              <mxPoint x="600" y="1030" />
              <mxPoint x="-690" y="1030" />
              <mxPoint x="-690" y="-340" />
              <mxPoint x="220" y="-340" />
            </Array>
          </mxGeometry>
        </mxCell>
        <mxCell id="SWJyvGieFvOSJalt4ezU-24" value="&lt;p style=&quot;margin-bottom:0cm;line-height:14.25pt;background:&lt;br/&gt;white&quot; class=&quot;MsoNormal&quot;&gt;&amp;nbsp; &amp;nbsp; &amp;nbsp; &amp;nbsp; &amp;nbsp; &amp;nbsp;&amp;nbsp;&lt;span style=&quot;font-size:10.5pt;font-family:Consolas;mso-fareast-font-family:&lt;br/&gt;&amp;quot;Times New Roman&amp;quot;;mso-bidi-font-family:&amp;quot;Times New Roman&amp;quot;;color:#AF00DB;&lt;br/&gt;mso-font-kerning:0pt;mso-ligatures:none;mso-ansi-language:EN-US;mso-fareast-language:&lt;br/&gt;IT&quot; lang=&quot;EN-US&quot;&gt;return&lt;/span&gt;&lt;span style=&quot;font-size: 10.5pt; font-family: Consolas;&quot; lang=&quot;EN-US&quot;&gt; &lt;/span&gt;&lt;span style=&quot;font-size:10.5pt;&lt;br/&gt;font-family:Consolas;mso-fareast-font-family:&amp;quot;Times New Roman&amp;quot;;mso-bidi-font-family:&lt;br/&gt;&amp;quot;Times New Roman&amp;quot;;color:#795E26;mso-font-kerning:0pt;mso-ligatures:none;&lt;br/&gt;mso-ansi-language:EN-US;mso-fareast-language:IT&quot; lang=&quot;EN-US&quot;&gt;render&lt;/span&gt;&lt;span style=&quot;font-size: 10.5pt; font-family: Consolas;&quot; lang=&quot;EN-US&quot;&gt;(&lt;/span&gt;&lt;span style=&quot;font-size:10.5pt;font-family:Consolas;mso-fareast-font-family:&lt;br/&gt;&amp;quot;Times New Roman&amp;quot;;mso-bidi-font-family:&amp;quot;Times New Roman&amp;quot;;color:#001080;&lt;br/&gt;mso-font-kerning:0pt;mso-ligatures:none;mso-ansi-language:EN-US;mso-fareast-language:&lt;br/&gt;IT&quot; lang=&quot;EN-US&quot;&gt;request&lt;/span&gt;&lt;span style=&quot;font-size: 10.5pt; font-family: Consolas;&quot; lang=&quot;EN-US&quot;&gt;, &lt;/span&gt;&lt;span style=&quot;font-size:10.5pt;&lt;br/&gt;font-family:Consolas;mso-fareast-font-family:&amp;quot;Times New Roman&amp;quot;;mso-bidi-font-family:&lt;br/&gt;&amp;quot;Times New Roman&amp;quot;;color:#A31515;mso-font-kerning:0pt;mso-ligatures:none;&lt;br/&gt;mso-ansi-language:EN-US;mso-fareast-language:IT&quot; lang=&quot;EN-US&quot;&gt;&#39;booking.html&#39;&lt;/span&gt;&lt;span style=&quot;font-size: 10.5pt; font-family: Consolas;&quot; lang=&quot;EN-US&quot;&gt;,&lt;/span&gt;&lt;span style=&quot;font-size:10.5pt;font-family:Consolas;&lt;br/&gt;mso-fareast-font-family:&amp;quot;Times New Roman&amp;quot;;mso-bidi-font-family:&amp;quot;Times New Roman&amp;quot;;&lt;br/&gt;color:#001080;mso-font-kerning:0pt;mso-ligatures:none;mso-ansi-language:EN-US;&lt;br/&gt;mso-fareast-language:IT&quot; lang=&quot;EN-US&quot;&gt;context&lt;/span&gt;&lt;span style=&quot;font-size: 10.5pt; font-family: Consolas;&quot; lang=&quot;EN-US&quot;&gt;=&lt;/span&gt;&lt;span style=&quot;font-size:10.5pt;font-family:Consolas;mso-fareast-font-family:&amp;quot;Times New Roman&amp;quot;;&lt;br/&gt;mso-bidi-font-family:&amp;quot;Times New Roman&amp;quot;;color:#001080;mso-font-kerning:0pt;&lt;br/&gt;mso-ligatures:none;mso-ansi-language:EN-US;mso-fareast-language:IT&quot; lang=&quot;EN-US&quot;&gt;context2&lt;/span&gt;&lt;span style=&quot;font-size: 10.5pt; font-family: Consolas;&quot; lang=&quot;EN-US&quot;&gt;)&lt;/span&gt;&lt;/p&gt;" style="rounded=0;whiteSpace=wrap;html=1;fontSize=12;glass=0;strokeWidth=1;shadow=0;align=left;" vertex="1" parent="WIyWlLk6GJQsqaUBKTNV-1">
          <mxGeometry x="300" y="790" width="600" height="50" as="geometry" />
        </mxCell>
        <mxCell id="SWJyvGieFvOSJalt4ezU-32" style="edgeStyle=orthogonalEdgeStyle;rounded=0;orthogonalLoop=1;jettySize=auto;html=1;exitX=0.5;exitY=1;exitDx=0;exitDy=0;entryX=0.844;entryY=-0.044;entryDx=0;entryDy=0;entryPerimeter=0;" edge="1" parent="WIyWlLk6GJQsqaUBKTNV-1" source="SWJyvGieFvOSJalt4ezU-29" target="SWJyvGieFvOSJalt4ezU-10">
          <mxGeometry relative="1" as="geometry">
            <Array as="points">
              <mxPoint x="790" y="210" />
              <mxPoint x="39" y="210" />
            </Array>
          </mxGeometry>
        </mxCell>
        <mxCell id="SWJyvGieFvOSJalt4ezU-35" style="edgeStyle=orthogonalEdgeStyle;rounded=0;orthogonalLoop=1;jettySize=auto;html=1;exitX=1;exitY=0.5;exitDx=0;exitDy=0;entryX=0;entryY=0.5;entryDx=0;entryDy=0;" edge="1" parent="WIyWlLk6GJQsqaUBKTNV-1" source="SWJyvGieFvOSJalt4ezU-29" target="SWJyvGieFvOSJalt4ezU-34">
          <mxGeometry relative="1" as="geometry" />
        </mxCell>
        <mxCell id="SWJyvGieFvOSJalt4ezU-29" value="&lt;p style=&quot;margin-bottom:0cm;line-height:14.25pt;background:&lt;br/&gt;white&quot; class=&quot;MsoNormal&quot;&gt;if&lt;span style=&quot;font-size: 10.5pt; font-family: Consolas;&quot; lang=&quot;EN-US&quot;&gt; &lt;/span&gt;&lt;span style=&quot;font-size:10.5pt;font-family:Consolas;mso-fareast-font-family:&amp;quot;Times New Roman&amp;quot;;&lt;br/&gt;mso-bidi-font-family:&amp;quot;Times New Roman&amp;quot;;color:#A31515;mso-font-kerning:0pt;&lt;br/&gt;mso-ligatures:none;mso-ansi-language:EN-US;mso-fareast-language:IT&quot; lang=&quot;EN-US&quot;&gt;&#39;btnform2&#39;&lt;/span&gt;&lt;span style=&quot;font-size: 10.5pt; font-family: Consolas;&quot; lang=&quot;EN-US&quot;&gt; &lt;/span&gt;&lt;span style=&quot;font-size:10.5pt;font-family:Consolas;&lt;br/&gt;mso-fareast-font-family:&amp;quot;Times New Roman&amp;quot;;mso-bidi-font-family:&amp;quot;Times New Roman&amp;quot;;&lt;br/&gt;color:blue;mso-font-kerning:0pt;mso-ligatures:none;mso-ansi-language:EN-US;&lt;br/&gt;mso-fareast-language:IT&quot; lang=&quot;EN-US&quot;&gt;in&lt;/span&gt;&lt;span style=&quot;font-size: 10.5pt; font-family: Consolas;&quot; lang=&quot;EN-US&quot;&gt; &lt;/span&gt;&lt;span style=&quot;font-size:10.5pt;font-family:Consolas;mso-fareast-font-family:&amp;quot;Times New Roman&amp;quot;;&lt;br/&gt;mso-bidi-font-family:&amp;quot;Times New Roman&amp;quot;;color:#001080;mso-font-kerning:0pt;&lt;br/&gt;mso-ligatures:none;mso-ansi-language:EN-US;mso-fareast-language:IT&quot; lang=&quot;EN-US&quot;&gt;request&lt;/span&gt;&lt;span style=&quot;font-size: 10.5pt; font-family: Consolas;&quot; lang=&quot;EN-US&quot;&gt;.POST &lt;/span&gt;&lt;span style=&quot;font-size:10.5pt;font-family:Consolas;&lt;br/&gt;mso-fareast-font-family:&amp;quot;Times New Roman&amp;quot;;mso-bidi-font-family:&amp;quot;Times New Roman&amp;quot;;&lt;br/&gt;color:blue;mso-font-kerning:0pt;mso-ligatures:none;mso-ansi-language:EN-US;&lt;br/&gt;mso-fareast-language:IT&quot; lang=&quot;EN-US&quot;&gt;and&lt;/span&gt;&lt;span style=&quot;font-size: 10.5pt; font-family: Consolas;&quot; lang=&quot;EN-US&quot;&gt; &lt;/span&gt;&lt;span style=&quot;font-size:10.5pt;font-family:Consolas;mso-fareast-font-family:&amp;quot;Times New Roman&amp;quot;;&lt;br/&gt;mso-bidi-font-family:&amp;quot;Times New Roman&amp;quot;;color:#A31515;mso-font-kerning:0pt;&lt;br/&gt;mso-ligatures:none;mso-ansi-language:EN-US;mso-fareast-language:IT&quot; lang=&quot;EN-US&quot;&gt;&#39;selected_slot&#39;&lt;/span&gt;&lt;span style=&quot;font-size: 10.5pt; font-family: Consolas;&quot; lang=&quot;EN-US&quot;&gt; &lt;/span&gt;&lt;span style=&quot;font-size:10.5pt;font-family:Consolas;&lt;br/&gt;mso-fareast-font-family:&amp;quot;Times New Roman&amp;quot;;mso-bidi-font-family:&amp;quot;Times New Roman&amp;quot;;&lt;br/&gt;color:blue;mso-font-kerning:0pt;mso-ligatures:none;mso-ansi-language:EN-US;&lt;br/&gt;mso-fareast-language:IT&quot; lang=&quot;EN-US&quot;&gt;in&lt;/span&gt;&lt;span style=&quot;font-size: 10.5pt; font-family: Consolas;&quot; lang=&quot;EN-US&quot;&gt; &lt;/span&gt;&lt;span style=&quot;font-size:10.5pt;font-family:Consolas;mso-fareast-font-family:&amp;quot;Times New Roman&amp;quot;;&lt;br/&gt;mso-bidi-font-family:&amp;quot;Times New Roman&amp;quot;;color:#001080;mso-font-kerning:0pt;&lt;br/&gt;mso-ligatures:none;mso-ansi-language:EN-US;mso-fareast-language:IT&quot; lang=&quot;EN-US&quot;&gt;request&lt;/span&gt;&lt;span style=&quot;font-size: 10.5pt; font-family: Consolas;&quot; lang=&quot;EN-US&quot;&gt;.POST:&lt;/span&gt;&lt;/p&gt;" style="rhombus;whiteSpace=wrap;html=1;shadow=0;fontFamily=Helvetica;fontSize=12;align=center;strokeWidth=1;spacing=6;spacingTop=-4;" vertex="1" parent="WIyWlLk6GJQsqaUBKTNV-1">
          <mxGeometry x="630" y="2.5" width="320" height="155" as="geometry" />
        </mxCell>
        <mxCell id="SWJyvGieFvOSJalt4ezU-33" value="False" style="edgeLabel;html=1;align=center;verticalAlign=middle;resizable=0;points=[];" vertex="1" connectable="0" parent="WIyWlLk6GJQsqaUBKTNV-1">
          <mxGeometry x="70" y="310.5" as="geometry" />
        </mxCell>
        <mxCell id="SWJyvGieFvOSJalt4ezU-38" style="edgeStyle=orthogonalEdgeStyle;rounded=0;orthogonalLoop=1;jettySize=auto;html=1;exitX=0.5;exitY=1;exitDx=0;exitDy=0;entryX=0.5;entryY=0;entryDx=0;entryDy=0;" edge="1" parent="WIyWlLk6GJQsqaUBKTNV-1" source="SWJyvGieFvOSJalt4ezU-34" target="SWJyvGieFvOSJalt4ezU-37">
          <mxGeometry relative="1" as="geometry" />
        </mxCell>
        <mxCell id="SWJyvGieFvOSJalt4ezU-34" value="&lt;p style=&quot;margin-bottom:0cm;line-height:14.25pt;background:&lt;br/&gt;white&quot; class=&quot;MsoNormal&quot;&gt;&lt;span style=&quot;font-size:10.5pt;font-family:Consolas;mso-fareast-font-family:&lt;br/&gt;&amp;quot;Times New Roman&amp;quot;;mso-bidi-font-family:&amp;quot;Times New Roman&amp;quot;;color:#001080;&lt;br/&gt;mso-font-kerning:0pt;mso-ligatures:none;mso-ansi-language:EN-US;mso-fareast-language:&lt;br/&gt;IT&quot; lang=&quot;EN-US&quot;&gt;&amp;nbsp; idc&lt;/span&gt;&lt;span style=&quot;font-size: 10.5pt; font-family: Consolas;&quot; lang=&quot;EN-US&quot;&gt; = &lt;/span&gt;&lt;span style=&quot;font-size:10.5pt;&lt;br/&gt;font-family:Consolas;mso-fareast-font-family:&amp;quot;Times New Roman&amp;quot;;mso-bidi-font-family:&lt;br/&gt;&amp;quot;Times New Roman&amp;quot;;color:#001080;mso-font-kerning:0pt;mso-ligatures:none;&lt;br/&gt;mso-ansi-language:EN-US;mso-fareast-language:IT&quot; lang=&quot;EN-US&quot;&gt;request&lt;/span&gt;&lt;span style=&quot;font-size: 10.5pt; font-family: Consolas;&quot; lang=&quot;EN-US&quot;&gt;.session.get(&lt;/span&gt;&lt;span style=&quot;font-size:10.5pt;font-family:&lt;br/&gt;Consolas;mso-fareast-font-family:&amp;quot;Times New Roman&amp;quot;;mso-bidi-font-family:&amp;quot;Times New Roman&amp;quot;;&lt;br/&gt;color:#A31515;mso-font-kerning:0pt;mso-ligatures:none;mso-ansi-language:EN-US;&lt;br/&gt;mso-fareast-language:IT&quot; lang=&quot;EN-US&quot;&gt;&#39;idc&#39;&lt;/span&gt;&lt;span style=&quot;font-size: 10.5pt; font-family: Consolas;&quot; lang=&quot;EN-US&quot;&gt;, &lt;/span&gt;&lt;span style=&quot;font-size:10.5pt;font-family:Consolas;mso-fareast-font-family:&amp;quot;Times New Roman&amp;quot;;&lt;br/&gt;mso-bidi-font-family:&amp;quot;Times New Roman&amp;quot;;color:#A31515;mso-font-kerning:0pt;&lt;br/&gt;mso-ligatures:none;mso-ansi-language:EN-US;mso-fareast-language:IT&quot; lang=&quot;EN-US&quot;&gt;&#39;&#39;&lt;/span&gt;&lt;span style=&quot;font-size: 10.5pt; font-family: Consolas;&quot; lang=&quot;EN-US&quot;&gt;)&amp;nbsp; &amp;nbsp; &amp;nbsp; &amp;nbsp; &amp;nbsp; &amp;nbsp;&amp;nbsp;&lt;/span&gt;&lt;span style=&quot;background-color: initial; font-size: 10.5pt; font-family: Consolas; color: rgb(0, 16, 128);&quot; lang=&quot;EN-US&quot;&gt;selected_timeslot_id&lt;/span&gt;&lt;span style=&quot;background-color: initial; font-size: 10.5pt; font-family: Consolas;&quot; lang=&quot;EN-US&quot;&gt; = &lt;/span&gt;&lt;span style=&quot;background-color: initial; font-size: 10.5pt; font-family: Consolas; color: rgb(0, 16, 128);&quot; lang=&quot;EN-US&quot;&gt;request&lt;/span&gt;&lt;span style=&quot;background-color: initial; font-size: 10.5pt; font-family: Consolas;&quot; lang=&quot;EN-US&quot;&gt;.POST.get(&lt;/span&gt;&lt;span style=&quot;background-color: initial; font-size: 10.5pt; font-family: Consolas;&quot; lang=&quot;EN-US&quot;&gt;&#39;selected_slot&#39;&lt;/span&gt;&lt;span style=&quot;background-color: initial; font-size: 10.5pt; font-family: Consolas;&quot; lang=&quot;EN-US&quot;&gt;)&lt;/span&gt;&lt;/p&gt;" style="rounded=0;whiteSpace=wrap;html=1;fontSize=12;glass=0;strokeWidth=1;shadow=0;align=left;" vertex="1" parent="WIyWlLk6GJQsqaUBKTNV-1">
          <mxGeometry x="1177.5" y="50" width="485" height="60" as="geometry" />
        </mxCell>
        <mxCell id="SWJyvGieFvOSJalt4ezU-36" value="True" style="edgeLabel;html=1;align=center;verticalAlign=middle;resizable=0;points=[];" vertex="1" connectable="0" parent="WIyWlLk6GJQsqaUBKTNV-1">
          <mxGeometry x="969.997037037037" y="69.99666666666607" as="geometry" />
        </mxCell>
        <mxCell id="SWJyvGieFvOSJalt4ezU-40" style="edgeStyle=orthogonalEdgeStyle;rounded=0;orthogonalLoop=1;jettySize=auto;html=1;exitX=1;exitY=0.5;exitDx=0;exitDy=0;entryX=0;entryY=0.5;entryDx=0;entryDy=0;" edge="1" parent="WIyWlLk6GJQsqaUBKTNV-1" source="SWJyvGieFvOSJalt4ezU-37" target="SWJyvGieFvOSJalt4ezU-39">
          <mxGeometry relative="1" as="geometry" />
        </mxCell>
        <mxCell id="SWJyvGieFvOSJalt4ezU-44" style="edgeStyle=orthogonalEdgeStyle;rounded=0;orthogonalLoop=1;jettySize=auto;html=1;exitX=0.5;exitY=1;exitDx=0;exitDy=0;entryX=0.5;entryY=0;entryDx=0;entryDy=0;" edge="1" parent="WIyWlLk6GJQsqaUBKTNV-1" source="SWJyvGieFvOSJalt4ezU-37" target="SWJyvGieFvOSJalt4ezU-42">
          <mxGeometry relative="1" as="geometry" />
        </mxCell>
        <mxCell id="SWJyvGieFvOSJalt4ezU-37" value="&lt;p style=&quot;margin-bottom:0cm;line-height:14.25pt;background:&lt;br/&gt;white&quot; class=&quot;MsoNormal&quot;&gt;&amp;nbsp; &amp;nbsp; &amp;nbsp; &amp;nbsp; &amp;nbsp; &amp;nbsp;&amp;nbsp;&lt;span style=&quot;font-size:10.5pt;font-family:Consolas;mso-fareast-font-family:&lt;br/&gt;&amp;quot;Times New Roman&amp;quot;;mso-bidi-font-family:&amp;quot;Times New Roman&amp;quot;;color:#001080;&lt;br/&gt;mso-font-kerning:0pt;mso-ligatures:none;mso-ansi-language:EN-US;mso-fareast-language:&lt;br/&gt;IT&quot; lang=&quot;EN-US&quot;&gt;timeslot&lt;/span&gt;&lt;span style=&quot;font-size: 10.5pt; font-family: Consolas;&quot; lang=&quot;EN-US&quot;&gt; = &lt;/span&gt;&lt;span style=&quot;font-size:10.5pt;&lt;br/&gt;font-family:Consolas;mso-fareast-font-family:&amp;quot;Times New Roman&amp;quot;;mso-bidi-font-family:&lt;br/&gt;&amp;quot;Times New Roman&amp;quot;;color:#795E26;mso-font-kerning:0pt;mso-ligatures:none;&lt;br/&gt;mso-ansi-language:EN-US;mso-fareast-language:IT&quot; lang=&quot;EN-US&quot;&gt;get_object_or_404&lt;/span&gt;&lt;span style=&quot;font-size: 10.5pt; font-family: Consolas;&quot; lang=&quot;EN-US&quot;&gt;(&lt;/span&gt;&lt;span style=&quot;font-size:10.5pt;font-family:Consolas;&lt;br/&gt;mso-fareast-font-family:&amp;quot;Times New Roman&amp;quot;;mso-bidi-font-family:&amp;quot;Times New Roman&amp;quot;;&lt;br/&gt;color:#267F99;mso-font-kerning:0pt;mso-ligatures:none;mso-ansi-language:EN-US;&lt;br/&gt;mso-fareast-language:IT&quot; lang=&quot;EN-US&quot;&gt;TimeSlot&lt;/span&gt;&lt;span style=&quot;font-size: 10.5pt; font-family: Consolas;&quot; lang=&quot;EN-US&quot;&gt;, &lt;/span&gt;&lt;span style=&quot;font-size:10.5pt;font-family:Consolas;mso-fareast-font-family:&amp;quot;Times New Roman&amp;quot;;&lt;br/&gt;mso-bidi-font-family:&amp;quot;Times New Roman&amp;quot;;color:#001080;mso-font-kerning:0pt;&lt;br/&gt;mso-ligatures:none;mso-ansi-language:EN-US;mso-fareast-language:IT&quot; lang=&quot;EN-US&quot;&gt;id&lt;/span&gt;&lt;span style=&quot;font-size: 10.5pt; font-family: Consolas;&quot; lang=&quot;EN-US&quot;&gt;=&lt;/span&gt;&lt;span style=&quot;font-size:10.5pt;font-family:Consolas;&lt;br/&gt;mso-fareast-font-family:&amp;quot;Times New Roman&amp;quot;;mso-bidi-font-family:&amp;quot;Times New Roman&amp;quot;;&lt;br/&gt;color:#001080;mso-font-kerning:0pt;mso-ligatures:none;mso-ansi-language:EN-US;&lt;br/&gt;mso-fareast-language:IT&quot; lang=&quot;EN-US&quot;&gt;selected_timeslot_id&lt;/span&gt;&lt;span style=&quot;font-size: 10.5pt; font-family: Consolas;&quot; lang=&quot;EN-US&quot;&gt;)&lt;/span&gt;&lt;/p&gt;" style="rhombus;whiteSpace=wrap;html=1;shadow=0;fontFamily=Helvetica;fontSize=12;align=center;strokeWidth=1;spacing=6;spacingTop=-4;" vertex="1" parent="WIyWlLk6GJQsqaUBKTNV-1">
          <mxGeometry x="1246.25" y="190" width="347.5" height="170" as="geometry" />
        </mxCell>
        <mxCell id="SWJyvGieFvOSJalt4ezU-39" value="&lt;p style=&quot;margin-bottom:0cm;line-height:14.25pt;background:&lt;br/&gt;white&quot; class=&quot;MsoNormal&quot;&gt;&lt;font face=&quot;Consolas&quot; color=&quot;#001080&quot;&gt;&lt;span style=&quot;font-size: 14px;&quot;&gt;Http404 Exception&lt;/span&gt;&lt;/font&gt;&lt;/p&gt;" style="rounded=0;whiteSpace=wrap;html=1;fontSize=12;glass=0;strokeWidth=1;shadow=0;align=left;" vertex="1" parent="WIyWlLk6GJQsqaUBKTNV-1">
          <mxGeometry x="1827.5" y="245" width="140" height="60" as="geometry" />
        </mxCell>
        <mxCell id="SWJyvGieFvOSJalt4ezU-41" value="False (404)" style="edgeLabel;html=1;align=center;verticalAlign=middle;resizable=0;points=[];" vertex="1" connectable="0" parent="WIyWlLk6GJQsqaUBKTNV-1">
          <mxGeometry x="1667.497037037037" y="259.9966666666661" as="geometry" />
        </mxCell>
        <mxCell id="SWJyvGieFvOSJalt4ezU-47" style="edgeStyle=orthogonalEdgeStyle;rounded=0;orthogonalLoop=1;jettySize=auto;html=1;exitX=0.5;exitY=1;exitDx=0;exitDy=0;entryX=0.5;entryY=0;entryDx=0;entryDy=0;" edge="1" parent="WIyWlLk6GJQsqaUBKTNV-1" source="SWJyvGieFvOSJalt4ezU-42" target="SWJyvGieFvOSJalt4ezU-45">
          <mxGeometry relative="1" as="geometry" />
        </mxCell>
        <mxCell id="SWJyvGieFvOSJalt4ezU-42" value="&lt;p style=&quot;margin-top:0cm;margin-right:0cm;margin-bottom:0cm;&lt;br/&gt;margin-left:70.9pt;text-indent:-70.9pt;line-height:14.25pt;background:white&quot; class=&quot;MsoNormal&quot;&gt;&lt;span style=&quot;&quot; lang=&quot;EN-US&quot;&gt;&amp;nbsp; &amp;nbsp; &amp;nbsp; &amp;nbsp; &amp;nbsp; &amp;nbsp; &amp;nbsp; &amp;nbsp; &amp;nbsp; &amp;nbsp; &amp;nbsp; &amp;nbsp; &amp;nbsp; &amp;nbsp; &amp;nbsp;&amp;nbsp;&lt;/span&gt;&lt;span style=&quot;font-size:10.5pt;font-family:Consolas;mso-fareast-font-family:&amp;quot;Times New Roman&amp;quot;;&lt;br/&gt;mso-bidi-font-family:&amp;quot;Times New Roman&amp;quot;;color:#001080;mso-font-kerning:0pt;&lt;br/&gt;mso-ligatures:none;mso-ansi-language:EN-US;mso-fareast-language:IT&quot; lang=&quot;EN-US&quot;&gt;slot&lt;/span&gt;&lt;span style=&quot;font-size: 10.5pt; font-family: Consolas;&quot; lang=&quot;EN-US&quot;&gt; = &lt;/span&gt;&lt;span style=&quot;font-size:10.5pt;font-family:Consolas;&lt;br/&gt;mso-fareast-font-family:&amp;quot;Times New Roman&amp;quot;;mso-bidi-font-family:&amp;quot;Times New Roman&amp;quot;;&lt;br/&gt;color:#267F99;mso-font-kerning:0pt;mso-ligatures:none;mso-ansi-language:EN-US;&lt;br/&gt;mso-fareast-language:IT&quot; lang=&quot;EN-US&quot;&gt;Slot&lt;/span&gt;&lt;span style=&quot;font-size: 10.5pt; font-family: Consolas;&quot; lang=&quot;EN-US&quot;&gt;.&lt;/span&gt;&lt;span style=&quot;font-size:10.5pt;font-family:Consolas;mso-fareast-font-family:&amp;quot;Times New Roman&amp;quot;;&lt;br/&gt;mso-bidi-font-family:&amp;quot;Times New Roman&amp;quot;;color:#001080;mso-font-kerning:0pt;&lt;br/&gt;mso-ligatures:none;mso-ansi-language:EN-US;mso-fareast-language:IT&quot; lang=&quot;EN-US&quot;&gt;objects&lt;/span&gt;&lt;span style=&quot;font-size: 10.5pt; font-family: Consolas;&quot; lang=&quot;EN-US&quot;&gt;.&lt;/span&gt;&lt;span style=&quot;font-size:10.5pt;font-family:Consolas;&lt;br/&gt;mso-fareast-font-family:&amp;quot;Times New Roman&amp;quot;;mso-bidi-font-family:&amp;quot;Times New Roman&amp;quot;;&lt;br/&gt;color:#795E26;mso-font-kerning:0pt;mso-ligatures:none;mso-ansi-language:EN-US;&lt;br/&gt;mso-fareast-language:IT&quot; lang=&quot;EN-US&quot;&gt;filter&lt;/span&gt;&lt;span style=&quot;font-size: 10.5pt; font-family: Consolas;&quot; lang=&quot;EN-US&quot;&gt;(&lt;/span&gt;&lt;span style=&quot;font-size:10.5pt;font-family:Consolas;mso-fareast-font-family:&amp;quot;Times New Roman&amp;quot;;&lt;br/&gt;mso-bidi-font-family:&amp;quot;Times New Roman&amp;quot;;color:#001080;mso-font-kerning:0pt;&lt;br/&gt;mso-ligatures:none;mso-ansi-language:EN-US;mso-fareast-language:IT&quot; lang=&quot;EN-US&quot;&gt;TimeSlot&lt;/span&gt;&lt;span style=&quot;font-size: 10.5pt; font-family: Consolas;&quot; lang=&quot;EN-US&quot;&gt;=&lt;/span&gt;&lt;span style=&quot;font-size:10.5pt;font-family:Consolas;&lt;br/&gt;mso-fareast-font-family:&amp;quot;Times New Roman&amp;quot;;mso-bidi-font-family:&amp;quot;Times New Roman&amp;quot;;&lt;br/&gt;color:#001080;mso-font-kerning:0pt;mso-ligatures:none;mso-ansi-language:EN-US;&lt;br/&gt;mso-fareast-language:IT&quot; lang=&quot;EN-US&quot;&gt;timeslot&lt;/span&gt;&lt;span style=&quot;font-size: 10.5pt; font-family: Consolas;&quot; lang=&quot;EN-US&quot;&gt;, &lt;/span&gt;&lt;span style=&quot;font-size:10.5pt;font-family:Consolas;mso-fareast-font-family:&amp;quot;Times New Roman&amp;quot;;&lt;br/&gt;mso-bidi-font-family:&amp;quot;Times New Roman&amp;quot;;color:#001080;mso-font-kerning:0pt;&lt;br/&gt;mso-ligatures:none;mso-ansi-language:EN-US;mso-fareast-language:IT&quot; lang=&quot;EN-US&quot;&gt;available&lt;/span&gt;&lt;span style=&quot;font-size: 10.5pt; font-family: Consolas;&quot; lang=&quot;EN-US&quot;&gt;=&lt;/span&gt;&lt;span style=&quot;font-size:10.5pt;font-family:Consolas;&lt;br/&gt;mso-fareast-font-family:&amp;quot;Times New Roman&amp;quot;;mso-bidi-font-family:&amp;quot;Times New Roman&amp;quot;;&lt;br/&gt;color:blue;mso-font-kerning:0pt;mso-ligatures:none;mso-ansi-language:EN-US;&lt;br/&gt;mso-fareast-language:IT&quot; lang=&quot;EN-US&quot;&gt;True&lt;/span&gt;&lt;span style=&quot;font-size: 10.5pt; font-family: Consolas;&quot; lang=&quot;EN-US&quot;&gt;).&lt;/span&gt;&lt;span style=&quot;font-size:10.5pt;font-family:Consolas;mso-fareast-font-family:&amp;quot;Times New Roman&amp;quot;;&lt;br/&gt;mso-bidi-font-family:&amp;quot;Times New Roman&amp;quot;;color:#795E26;mso-font-kerning:0pt;&lt;br/&gt;mso-ligatures:none;mso-ansi-language:EN-US;mso-fareast-language:IT&quot; lang=&quot;EN-US&quot;&gt;first&lt;/span&gt;&lt;span style=&quot;font-size: 10.5pt; font-family: Consolas;&quot; lang=&quot;EN-US&quot;&gt;()&lt;/span&gt;&lt;span style=&quot;background-color: initial; font-size: 10.5pt; font-family: Consolas;&quot; lang=&quot;EN-US&quot;&gt;&amp;nbsp; &amp;nbsp;&lt;/span&gt;&lt;span style=&quot;background-color: initial; font-size: 10.5pt; font-family: Consolas; color: rgb(0, 16, 128);&quot; lang=&quot;EN-US&quot;&gt;shop&lt;/span&gt;&lt;span style=&quot;background-color: initial; font-size: 10.5pt; font-family: Consolas;&quot; lang=&quot;EN-US&quot;&gt; = &lt;/span&gt;&lt;span style=&quot;background-color: initial; font-size: 10.5pt; color: rgb(0, 16, 128);&quot; lang=&quot;EN-US&quot;&gt;timeslot&lt;/span&gt;&lt;span style=&quot;background-color: initial; font-size: 10.5pt; font-family: Consolas;&quot; lang=&quot;EN-US&quot;&gt;.&lt;/span&gt;&lt;span style=&quot;background-color: initial; font-size: 10.5pt; font-family: Consolas;&quot; lang=&quot;EN-US&quot;&gt;shop&amp;nbsp; &amp;nbsp; &amp;nbsp; &amp;nbsp; &amp;nbsp; &amp;nbsp; &amp;nbsp; &amp;nbsp; &amp;nbsp; &amp;nbsp; &amp;nbsp; &amp;nbsp; &amp;nbsp; &amp;nbsp; &amp;nbsp; &amp;nbsp; &amp;nbsp; &amp;nbsp; &amp;nbsp; &amp;nbsp; &amp;nbsp; &amp;nbsp; &amp;nbsp; &amp;nbsp; &amp;nbsp; &amp;nbsp;&lt;/span&gt;&lt;span style=&quot;background-color: initial; font-size: 10.5pt; font-family: Consolas; color: rgb(0, 16, 128);&quot; lang=&quot;EN-US&quot;&gt;slot&lt;/span&gt;&lt;span style=&quot;background-color: initial; font-size: 10.5pt; font-family: Consolas;&quot; lang=&quot;EN-US&quot;&gt;.&lt;/span&gt;&lt;span style=&quot;background-color: initial; font-size: 10.5pt; color: rgb(0, 16, 128);&quot; lang=&quot;EN-US&quot;&gt;available&lt;/span&gt;&lt;span style=&quot;background-color: initial; font-size: 10.5pt; font-family: Consolas;&quot; lang=&quot;EN-US&quot;&gt; = &lt;/span&gt;&lt;span style=&quot;background-color: initial; font-size: 10.5pt; font-family: Consolas;&quot; lang=&quot;EN-US&quot;&gt;False&amp;nbsp; &amp;nbsp; &amp;nbsp; &amp;nbsp; &amp;nbsp; &amp;nbsp; &amp;nbsp; &amp;nbsp; &amp;nbsp; &amp;nbsp; &amp;nbsp; &amp;nbsp; &amp;nbsp; &amp;nbsp; &amp;nbsp; &amp;nbsp; &amp;nbsp; &amp;nbsp; &amp;nbsp; &amp;nbsp; &amp;nbsp; &amp;nbsp; &amp;nbsp; &amp;nbsp; &amp;nbsp; &amp;nbsp;s&lt;/span&gt;&lt;span style=&quot;background-color: initial; font-size: 10.5pt; font-family: Consolas; color: rgb(0, 16, 128);&quot; lang=&quot;EN-US&quot;&gt;lot&lt;/span&gt;&lt;span style=&quot;background-color: initial; font-size: 10.5pt; font-family: Consolas;&quot; lang=&quot;EN-US&quot;&gt;.&lt;/span&gt;&lt;span style=&quot;background-color: initial; font-size: 10.5pt; color: rgb(0, 16, 128);&quot; lang=&quot;EN-US&quot;&gt;idc&lt;/span&gt;&lt;span style=&quot;background-color: initial; font-size: 10.5pt; font-family: Consolas;&quot; lang=&quot;EN-US&quot;&gt; = &lt;/span&gt;&lt;span style=&quot;background-color: initial; font-size: 10.5pt; font-family: Consolas; color: rgb(0, 16, 128);&quot; lang=&quot;EN-US&quot;&gt;idc&amp;nbsp; &amp;nbsp; &amp;nbsp; &amp;nbsp; &amp;nbsp; &amp;nbsp; &amp;nbsp; &amp;nbsp; &amp;nbsp; &amp;nbsp; &amp;nbsp; &amp;nbsp; &amp;nbsp; &amp;nbsp; &amp;nbsp; &amp;nbsp; &amp;nbsp; &amp;nbsp; &amp;nbsp;&amp;nbsp;&lt;/span&gt;&lt;span style=&quot;background-color: initial; font-size: 10.5pt; font-family: Consolas;&quot; lang=&quot;EN-US&quot;&gt;&amp;nbsp; &amp;nbsp; &amp;nbsp; &amp;nbsp; &amp;nbsp;&lt;/span&gt;&lt;span style=&quot;background-color: initial; font-size: 10.5pt; font-family: Consolas; color: rgb(0, 16, 128);&quot; lang=&quot;EN-US&quot;&gt;slot&lt;/span&gt;&lt;span style=&quot;background-color: initial; font-size: 10.5pt; font-family: Consolas;&quot; lang=&quot;EN-US&quot;&gt;.&lt;/span&gt;&lt;span style=&quot;background-color: initial; font-size: 10.5pt; color: rgb(121, 94, 38);&quot; lang=&quot;EN-US&quot;&gt;save&lt;/span&gt;&lt;span style=&quot;background-color: initial; font-size: 10.5pt; font-family: Consolas;&quot; lang=&quot;EN-US&quot;&gt;()&lt;/span&gt;&lt;/p&gt;&lt;p style=&quot;margin-bottom:0cm;line-height:14.25pt;background:&lt;br/&gt;white&quot; class=&quot;MsoNormal&quot;&gt;&lt;span style=&quot;font-size: 10.5pt; font-family: Consolas;&quot; lang=&quot;EN-US&quot;&gt;&lt;/span&gt;&lt;/p&gt;" style="rounded=0;whiteSpace=wrap;html=1;fontSize=12;glass=0;strokeWidth=1;shadow=0;align=left;" vertex="1" parent="WIyWlLk6GJQsqaUBKTNV-1">
          <mxGeometry x="1144.5" y="436" width="551" height="148" as="geometry" />
        </mxCell>
        <mxCell id="SWJyvGieFvOSJalt4ezU-49" style="edgeStyle=orthogonalEdgeStyle;rounded=0;orthogonalLoop=1;jettySize=auto;html=1;exitX=0.5;exitY=1;exitDx=0;exitDy=0;" edge="1" parent="WIyWlLk6GJQsqaUBKTNV-1" source="SWJyvGieFvOSJalt4ezU-45" target="SWJyvGieFvOSJalt4ezU-48">
          <mxGeometry relative="1" as="geometry" />
        </mxCell>
        <mxCell id="SWJyvGieFvOSJalt4ezU-55" style="edgeStyle=orthogonalEdgeStyle;rounded=0;orthogonalLoop=1;jettySize=auto;html=1;exitX=1;exitY=0.5;exitDx=0;exitDy=0;" edge="1" parent="WIyWlLk6GJQsqaUBKTNV-1" source="SWJyvGieFvOSJalt4ezU-45" target="SWJyvGieFvOSJalt4ezU-52">
          <mxGeometry relative="1" as="geometry" />
        </mxCell>
        <mxCell id="SWJyvGieFvOSJalt4ezU-45" value="&lt;p style=&quot;margin-bottom:0cm;line-height:14.25pt;background:&lt;br/&gt;white&quot; class=&quot;MsoNormal&quot;&gt;&amp;nbsp; &amp;nbsp; &amp;nbsp; &amp;nbsp; &amp;nbsp; &amp;nbsp;&amp;nbsp;&lt;span style=&quot;font-size:10.5pt;font-family:Consolas;mso-fareast-font-family:&lt;br/&gt;&amp;quot;Times New Roman&amp;quot;;mso-bidi-font-family:&amp;quot;Times New Roman&amp;quot;;color:#AF00DB;&lt;br/&gt;mso-font-kerning:0pt;mso-ligatures:none;mso-ansi-language:EN-US;mso-fareast-language:&lt;br/&gt;IT&quot; lang=&quot;EN-US&quot;&gt;if&lt;/span&gt;&lt;span style=&quot;font-size: 10.5pt; font-family: Consolas;&quot; lang=&quot;EN-US&quot;&gt; &lt;/span&gt;&lt;span style=&quot;font-size:10.5pt;&lt;br/&gt;font-family:Consolas;mso-fareast-font-family:&amp;quot;Times New Roman&amp;quot;;mso-bidi-font-family:&lt;br/&gt;&amp;quot;Times New Roman&amp;quot;;color:blue;mso-font-kerning:0pt;mso-ligatures:none;&lt;br/&gt;mso-ansi-language:EN-US;mso-fareast-language:IT&quot; lang=&quot;EN-US&quot;&gt;not&lt;/span&gt;&lt;span style=&quot;font-size: 10.5pt; font-family: Consolas;&quot; lang=&quot;EN-US&quot;&gt; &lt;/span&gt;&lt;span style=&quot;font-size:10.5pt;font-family:Consolas;mso-fareast-font-family:&lt;br/&gt;&amp;quot;Times New Roman&amp;quot;;mso-bidi-font-family:&amp;quot;Times New Roman&amp;quot;;color:#267F99;&lt;br/&gt;mso-font-kerning:0pt;mso-ligatures:none;mso-ansi-language:EN-US;mso-fareast-language:&lt;br/&gt;IT&quot; lang=&quot;EN-US&quot;&gt;Slot&lt;/span&gt;&lt;span style=&quot;font-size: 10.5pt; font-family: Consolas;&quot; lang=&quot;EN-US&quot;&gt;.&lt;/span&gt;&lt;span style=&quot;font-size:10.5pt;&lt;br/&gt;font-family:Consolas;mso-fareast-font-family:&amp;quot;Times New Roman&amp;quot;;mso-bidi-font-family:&lt;br/&gt;&amp;quot;Times New Roman&amp;quot;;color:#001080;mso-font-kerning:0pt;mso-ligatures:none;&lt;br/&gt;mso-ansi-language:EN-US;mso-fareast-language:IT&quot; lang=&quot;EN-US&quot;&gt;objects&lt;/span&gt;&lt;span style=&quot;font-size: 10.5pt; font-family: Consolas;&quot; lang=&quot;EN-US&quot;&gt;.&lt;/span&gt;&lt;span style=&quot;font-size:10.5pt;font-family:Consolas;&lt;br/&gt;mso-fareast-font-family:&amp;quot;Times New Roman&amp;quot;;mso-bidi-font-family:&amp;quot;Times New Roman&amp;quot;;&lt;br/&gt;color:#795E26;mso-font-kerning:0pt;mso-ligatures:none;mso-ansi-language:EN-US;&lt;br/&gt;mso-fareast-language:IT&quot; lang=&quot;EN-US&quot;&gt;filter&lt;/span&gt;&lt;span style=&quot;font-size: 10.5pt; font-family: Consolas;&quot; lang=&quot;EN-US&quot;&gt;(&lt;/span&gt;&lt;span style=&quot;font-size:10.5pt;font-family:Consolas;mso-fareast-font-family:&amp;quot;Times New Roman&amp;quot;;&lt;br/&gt;mso-bidi-font-family:&amp;quot;Times New Roman&amp;quot;;color:#001080;mso-font-kerning:0pt;&lt;br/&gt;mso-ligatures:none;mso-ansi-language:EN-US;mso-fareast-language:IT&quot; lang=&quot;EN-US&quot;&gt;available&lt;/span&gt;&lt;span style=&quot;font-size: 10.5pt; font-family: Consolas;&quot; lang=&quot;EN-US&quot;&gt;=&lt;/span&gt;&lt;span style=&quot;font-size:10.5pt;font-family:Consolas;&lt;br/&gt;mso-fareast-font-family:&amp;quot;Times New Roman&amp;quot;;mso-bidi-font-family:&amp;quot;Times New Roman&amp;quot;;&lt;br/&gt;color:blue;mso-font-kerning:0pt;mso-ligatures:none;mso-ansi-language:EN-US;&lt;br/&gt;mso-fareast-language:IT&quot; lang=&quot;EN-US&quot;&gt;True&lt;/span&gt;&lt;span style=&quot;font-size: 10.5pt; font-family: Consolas;&quot; lang=&quot;EN-US&quot;&gt;, &lt;/span&gt;&lt;span style=&quot;font-size:10.5pt;font-family:Consolas;mso-fareast-font-family:&amp;quot;Times New Roman&amp;quot;;&lt;br/&gt;mso-bidi-font-family:&amp;quot;Times New Roman&amp;quot;;color:#001080;mso-font-kerning:0pt;&lt;br/&gt;mso-ligatures:none;mso-ansi-language:EN-US;mso-fareast-language:IT&quot; lang=&quot;EN-US&quot;&gt;TimeSlot&lt;/span&gt;&lt;span style=&quot;font-size: 10.5pt; font-family: Consolas;&quot; lang=&quot;EN-US&quot;&gt;=&lt;/span&gt;&lt;span style=&quot;font-size:10.5pt;font-family:Consolas;&lt;br/&gt;mso-fareast-font-family:&amp;quot;Times New Roman&amp;quot;;mso-bidi-font-family:&amp;quot;Times New Roman&amp;quot;;&lt;br/&gt;color:#001080;mso-font-kerning:0pt;mso-ligatures:none;mso-ansi-language:EN-US;&lt;br/&gt;mso-fareast-language:IT&quot; lang=&quot;EN-US&quot;&gt;timeslot&lt;/span&gt;&lt;span style=&quot;font-size: 10.5pt; font-family: Consolas;&quot; lang=&quot;EN-US&quot;&gt;).&lt;/span&gt;&lt;span style=&quot;font-size:10.5pt;font-family:Consolas;mso-fareast-font-family:&amp;quot;Times New Roman&amp;quot;;&lt;br/&gt;mso-bidi-font-family:&amp;quot;Times New Roman&amp;quot;;color:#795E26;mso-font-kerning:0pt;&lt;br/&gt;mso-ligatures:none;mso-ansi-language:EN-US;mso-fareast-language:IT&quot; lang=&quot;EN-US&quot;&gt;exists&lt;/span&gt;&lt;span style=&quot;font-size: 10.5pt; font-family: Consolas;&quot; lang=&quot;EN-US&quot;&gt;():&lt;/span&gt;&lt;/p&gt;" style="rhombus;whiteSpace=wrap;html=1;shadow=0;fontFamily=Helvetica;fontSize=12;align=center;strokeWidth=1;spacing=6;spacingTop=-4;" vertex="1" parent="WIyWlLk6GJQsqaUBKTNV-1">
          <mxGeometry x="1203.13" y="640" width="433.75" height="170" as="geometry" />
        </mxCell>
        <mxCell id="SWJyvGieFvOSJalt4ezU-46" value="True" style="edgeLabel;html=1;align=center;verticalAlign=middle;resizable=0;points=[];" vertex="1" connectable="0" parent="WIyWlLk6GJQsqaUBKTNV-1">
          <mxGeometry x="1359.997037037037" y="379.9966666666661" as="geometry">
            <mxPoint x="22" y="12" as="offset" />
          </mxGeometry>
        </mxCell>
        <mxCell id="SWJyvGieFvOSJalt4ezU-56" style="edgeStyle=orthogonalEdgeStyle;rounded=0;orthogonalLoop=1;jettySize=auto;html=1;exitX=1;exitY=0.5;exitDx=0;exitDy=0;" edge="1" parent="WIyWlLk6GJQsqaUBKTNV-1" source="SWJyvGieFvOSJalt4ezU-48" target="SWJyvGieFvOSJalt4ezU-52">
          <mxGeometry relative="1" as="geometry" />
        </mxCell>
        <mxCell id="SWJyvGieFvOSJalt4ezU-48" value="&lt;p style=&quot;margin-bottom:0cm;line-height:14.25pt;background:&lt;br/&gt;white&quot; class=&quot;MsoNormal&quot;&gt;&lt;span style=&quot;font-size:10.5pt;font-family:Consolas;&lt;br/&gt;mso-fareast-font-family:&amp;quot;Times New Roman&amp;quot;;mso-bidi-font-family:&amp;quot;Times New Roman&amp;quot;;&lt;br/&gt;color:#001080;mso-font-kerning:0pt;mso-ligatures:none;mso-ansi-language:EN-US;&lt;br/&gt;mso-fareast-language:IT&quot; lang=&quot;EN-US&quot;&gt;timeslot&lt;/span&gt;&lt;span style=&quot;font-size: 10.5pt; font-family: Consolas;&quot; lang=&quot;EN-US&quot;&gt;.&lt;/span&gt;&lt;span style=&quot;font-size:10.5pt;font-family:Consolas;mso-fareast-font-family:&amp;quot;Times New Roman&amp;quot;;&lt;br/&gt;mso-bidi-font-family:&amp;quot;Times New Roman&amp;quot;;color:#001080;mso-font-kerning:0pt;&lt;br/&gt;mso-ligatures:none;mso-ansi-language:EN-US;mso-fareast-language:IT&quot; lang=&quot;EN-US&quot;&gt;available&lt;/span&gt;&lt;span style=&quot;font-size: 10.5pt; font-family: Consolas;&quot; lang=&quot;EN-US&quot;&gt; = &lt;/span&gt;&lt;span style=&quot;font-size:10.5pt;font-family:Consolas;&lt;br/&gt;mso-fareast-font-family:&amp;quot;Times New Roman&amp;quot;;mso-bidi-font-family:&amp;quot;Times New Roman&amp;quot;;&lt;br/&gt;color:blue;mso-font-kerning:0pt;mso-ligatures:none;mso-ansi-language:EN-US;&lt;br/&gt;mso-fareast-language:IT&quot; lang=&quot;EN-US&quot;&gt;False&amp;nbsp; &amp;nbsp; &amp;nbsp; &lt;/span&gt;&lt;span style=&quot;background-color: initial; font-size: 10.5pt; font-family: Consolas;&quot; lang=&quot;EN-US&quot;&gt;timeslot&lt;/span&gt;&lt;span style=&quot;background-color: initial; font-size: 10.5pt; font-family: Consolas;&quot; lang=&quot;EN-US&quot;&gt;.&lt;/span&gt;&lt;span style=&quot;background-color: initial; font-size: 10.5pt; font-family: Consolas; color: rgb(121, 94, 38);&quot; lang=&quot;EN-US&quot;&gt;save&lt;/span&gt;&lt;span style=&quot;background-color: initial; font-size: 10.5pt; font-family: Consolas;&quot; lang=&quot;EN-US&quot;&gt;()&lt;/span&gt;&lt;/p&gt;&lt;p style=&quot;margin-bottom:0cm;line-height:14.25pt;background:&lt;br/&gt;white&quot; class=&quot;MsoNormal&quot;&gt;&lt;span style=&quot;font-size: 10.5pt; font-family: Consolas;&quot; lang=&quot;EN-US&quot;&gt;&lt;/span&gt;&lt;/p&gt;" style="rounded=0;whiteSpace=wrap;html=1;fontSize=12;glass=0;strokeWidth=1;shadow=0;align=left;" vertex="1" parent="WIyWlLk6GJQsqaUBKTNV-1">
          <mxGeometry x="1277.26" y="950" width="285.5" height="70" as="geometry" />
        </mxCell>
        <mxCell id="SWJyvGieFvOSJalt4ezU-50" value="True" style="edgeLabel;html=1;align=center;verticalAlign=middle;resizable=0;points=[];" vertex="1" connectable="0" parent="WIyWlLk6GJQsqaUBKTNV-1">
          <mxGeometry x="1369.997037037037" y="859.9966666666661" as="geometry">
            <mxPoint x="22" y="12" as="offset" />
          </mxGeometry>
        </mxCell>
        <mxCell id="SWJyvGieFvOSJalt4ezU-52" value="&lt;p style=&quot;margin-bottom:0cm;line-height:14.25pt;background:&lt;br/&gt;white&quot; class=&quot;MsoNormal&quot;&gt;&amp;nbsp; &amp;nbsp; &amp;nbsp; &amp;nbsp; &amp;nbsp; &amp;nbsp;&amp;nbsp;&lt;span style=&quot;font-size:10.5pt;font-family:Consolas;mso-fareast-font-family:&lt;br/&gt;&amp;quot;Times New Roman&amp;quot;;mso-bidi-font-family:&amp;quot;Times New Roman&amp;quot;;color:#AF00DB;&lt;br/&gt;mso-font-kerning:0pt;mso-ligatures:none;mso-ansi-language:EN-US;mso-fareast-language:&lt;br/&gt;IT&quot; lang=&quot;EN-US&quot;&gt;return&lt;/span&gt;&lt;span style=&quot;font-size: 10.5pt; font-family: Consolas;&quot; lang=&quot;EN-US&quot;&gt; &lt;/span&gt;&lt;span style=&quot;font-size:10.5pt;&lt;br/&gt;font-family:Consolas;mso-fareast-font-family:&amp;quot;Times New Roman&amp;quot;;mso-bidi-font-family:&lt;br/&gt;&amp;quot;Times New Roman&amp;quot;;color:#795E26;mso-font-kerning:0pt;mso-ligatures:none;&lt;br/&gt;mso-ansi-language:EN-US;mso-fareast-language:IT&quot; lang=&quot;EN-US&quot;&gt;render&lt;/span&gt;&lt;span style=&quot;font-size: 10.5pt; font-family: Consolas;&quot; lang=&quot;EN-US&quot;&gt;(&lt;/span&gt;&lt;span style=&quot;font-size:10.5pt;font-family:Consolas;mso-fareast-font-family:&lt;br/&gt;&amp;quot;Times New Roman&amp;quot;;mso-bidi-font-family:&amp;quot;Times New Roman&amp;quot;;color:#001080;&lt;br/&gt;mso-font-kerning:0pt;mso-ligatures:none;mso-ansi-language:EN-US;mso-fareast-language:&lt;br/&gt;IT&quot; lang=&quot;EN-US&quot;&gt;request&lt;/span&gt;&lt;span style=&quot;font-size: 10.5pt; font-family: Consolas;&quot; lang=&quot;EN-US&quot;&gt;, &lt;/span&gt;&lt;span style=&quot;font-size:10.5pt;&lt;br/&gt;font-family:Consolas;mso-fareast-font-family:&amp;quot;Times New Roman&amp;quot;;mso-bidi-font-family:&lt;br/&gt;&amp;quot;Times New Roman&amp;quot;;color:#A31515;mso-font-kerning:0pt;mso-ligatures:none;&lt;br/&gt;mso-ansi-language:EN-US;mso-fareast-language:IT&quot; lang=&quot;EN-US&quot;&gt;&#39;qr.html&#39;&lt;/span&gt;&lt;span style=&quot;font-size: 10.5pt; font-family: Consolas;&quot; lang=&quot;EN-US&quot;&gt;, context=context3)&lt;/span&gt;&lt;span style=&quot;background-color: initial; font-family: Consolas; font-size: 10.5pt;&quot;&gt;&amp;nbsp;&lt;/span&gt;&lt;/p&gt;" style="rounded=0;whiteSpace=wrap;html=1;fontSize=12;glass=0;strokeWidth=1;shadow=0;align=left;" vertex="1" parent="WIyWlLk6GJQsqaUBKTNV-1">
          <mxGeometry x="1740" y="940" width="420" height="90" as="geometry" />
        </mxCell>
        <mxCell id="SWJyvGieFvOSJalt4ezU-53" value="False" style="edgeLabel;html=1;align=center;verticalAlign=middle;resizable=0;points=[];" vertex="1" connectable="0" parent="WIyWlLk6GJQsqaUBKTNV-1">
          <mxGeometry x="1713.497037037037" y="709.9966666666661" as="geometry" />
        </mxCell>
      </root>
    </mxGraphModel>
  </diagram>
</mxfile>
